<svg width="145" height="145" viewBox="0 0 145 145" fill="none" xmlns="http://www.w3.org/2000/svg">
<circle cx="72.5" cy="72.5" r="72.5" fill="#B1DAF6"/>
<path d="M73 33C64.5131 33 56.3737 36.3714 50.3726 42.3726C44.3714 48.3737 41 56.513 41 64.9999C41 86.5998 69.2 111 70.4 112.04C71.1245 112.659 72.0466 113 73 113C73.9534 113 74.8755 112.659 75.6 112.04C77 111 105 86.5998 105 64.9999C105 56.513 101.629 48.3737 95.6274 42.3726C89.6263 36.3714 81.4869 33 73 33V33ZM73 103.6C64.48 95.5998 49 78.3599 49 64.9999C49 58.6347 51.5286 52.5302 56.0294 48.0294C60.5303 43.5285 66.6348 41 73 41C79.3652 41 85.4697 43.5285 89.9706 48.0294C94.4714 52.5302 97 58.6347 97 64.9999C97 78.3599 81.52 95.6398 73 103.6ZM73 48.9999C69.8355 48.9999 66.7421 49.9383 64.1109 51.6964C61.4797 53.4545 59.4289 55.9534 58.2179 58.877C57.0069 61.8006 56.6901 65.0176 57.3074 68.1213C57.9248 71.225 59.4487 74.0759 61.6863 76.3136C63.9239 78.5512 66.7749 80.0751 69.8786 80.6924C72.9823 81.3098 76.1993 80.9929 79.1229 79.7819C82.0466 78.5709 84.5454 76.5202 86.3035 73.889C88.0616 71.2578 89 68.1644 89 64.9999C89 60.7564 87.3143 56.6868 84.3137 53.6862C81.3131 50.6857 77.2435 48.9999 73 48.9999ZM73 72.9999C71.4177 72.9999 69.871 72.5307 68.5554 71.6516C67.2398 70.7726 66.2145 69.5232 65.609 68.0614C65.0035 66.5995 64.845 64.991 65.1537 63.4392C65.4624 61.8873 66.2243 60.4619 67.3431 59.3431C68.462 58.2242 69.8874 57.4623 71.4393 57.1536C72.9911 56.845 74.5997 57.0034 76.0615 57.6089C77.5233 58.2144 78.7727 59.2398 79.6518 60.5554C80.5308 61.8709 81 63.4177 81 64.9999C81 67.1216 80.1571 69.1564 78.6569 70.6567C77.1566 72.157 75.1217 72.9999 73 72.9999Z" fill="#2094E6"/>
</svg>
