<svg width="145" height="145" viewBox="0 0 145 145" fill="none" xmlns="http://www.w3.org/2000/svg">
<circle cx="72.5" cy="72.5" r="72.5" fill="#B1DAF6"/>
<path d="M93.89 73.3752C93.2575 73.3752 92.5962 73.1739 91.9637 73.0302C90.6829 72.7479 89.4242 72.3732 88.1975 71.9089C86.8637 71.4237 85.3977 71.4489 84.0814 71.9797C82.7651 72.5104 81.6916 73.5092 81.0675 74.7839L80.435 76.0777C77.6347 74.5199 75.0616 72.5852 72.7875 70.3277C70.5299 68.0536 68.5952 65.4804 67.0375 62.6802L68.245 61.8752C69.5197 61.2511 70.5185 60.1776 71.0492 58.8613C71.58 57.545 71.6052 56.0789 71.12 54.7452C70.6635 53.5159 70.2889 52.2577 69.9987 50.9789C69.855 50.3464 69.74 49.6852 69.6537 49.0239C69.3046 46.9988 68.2439 45.1649 66.6626 43.8525C65.0814 42.54 63.0835 41.8353 61.0287 41.8652H52.4037C51.1647 41.8535 49.9377 42.109 48.8063 42.6142C47.6748 43.1194 46.6656 43.8624 45.8471 44.7927C45.0286 45.723 44.4202 46.8188 44.0633 48.0053C43.7064 49.1919 43.6093 50.4415 43.7787 51.6689C45.3104 63.7134 50.8111 74.9043 59.412 83.474C68.0129 92.0437 79.2238 97.5036 91.2737 98.9914H92.3662C94.4863 98.9945 96.5332 98.2167 98.1162 96.8064C99.0258 95.9929 99.7523 94.9957 100.248 93.8806C100.744 92.7655 100.997 91.5579 100.991 90.3377V81.7127C100.956 79.7156 100.229 77.7928 98.9337 76.2722C97.6386 74.7517 95.856 73.7277 93.89 73.3752V73.3752ZM95.3275 90.6252C95.327 91.0334 95.2395 91.4368 95.071 91.8086C94.9024 92.1804 94.6567 92.512 94.35 92.7814C94.0297 93.0603 93.6542 93.2685 93.2479 93.3923C92.8417 93.5162 92.4139 93.5529 91.9925 93.5002C81.2253 92.1196 71.2242 87.1938 63.5665 79.4998C55.9089 71.8057 51.0307 61.7813 49.7012 51.0077C49.6555 50.5865 49.6956 50.1605 49.8191 49.7553C49.9427 49.3501 50.1471 48.9741 50.42 48.6502C50.6894 48.3435 51.021 48.0977 51.3928 47.9292C51.7646 47.7606 52.168 47.6732 52.5762 47.6727H61.2012C61.8698 47.6578 62.5226 47.8764 63.0474 48.291C63.5721 48.7055 63.936 49.2901 64.0762 49.9439C64.1912 50.7298 64.335 51.506 64.5075 52.2727C64.8396 53.7882 65.2816 55.2776 65.83 56.7289L61.805 58.5977C61.4608 58.7556 61.1513 58.9799 60.8941 59.2578C60.6368 59.5356 60.4371 59.8616 60.3062 60.2169C60.1753 60.5721 60.1158 60.9498 60.1313 61.3281C60.1468 61.7064 60.2368 62.078 60.3962 62.4214C64.5339 71.2843 71.6583 78.4087 80.5212 82.5464C81.2212 82.834 82.0063 82.834 82.7062 82.5464C83.0648 82.4182 83.3943 82.22 83.6756 81.9633C83.9569 81.7067 84.1844 81.3967 84.345 81.0514L86.1275 77.0264C87.6138 77.5579 89.1307 77.9996 90.67 78.3489C91.4366 78.5214 92.2129 78.6652 92.9987 78.7802C93.6526 78.9204 94.2371 79.2843 94.6517 79.809C95.0662 80.3338 95.2849 80.9866 95.27 81.6552L95.3275 90.6252Z" fill="#2094E6"/>
</svg>
