<svg width="145" height="145" viewBox="0 0 145 145" fill="none" xmlns="http://www.w3.org/2000/svg">
<circle cx="72.5" cy="72.5" r="72.5" fill="#B1DAF6"/>
<path d="M97.5 43H48.5C45.7152 43 43.0445 44.1062 41.0754 46.0754C39.1062 48.0445 38 50.7152 38 53.5V88.5C38 91.2848 39.1062 93.9555 41.0754 95.9246C43.0445 97.8938 45.7152 99 48.5 99H97.5C100.285 99 102.955 97.8938 104.925 95.9246C106.894 93.9555 108 91.2848 108 88.5V53.5C108 50.7152 106.894 48.0445 104.925 46.0754C102.955 44.1062 100.285 43 97.5 43V43ZM48.5 50H97.5C98.4283 50 99.3185 50.3687 99.9749 51.0251C100.631 51.6815 101 52.5717 101 53.5L73 70.58L45 53.5C45 52.5717 45.3687 51.6815 46.0251 51.0251C46.6815 50.3687 47.5717 50 48.5 50V50ZM101 88.5C101 89.4283 100.631 90.3185 99.9749 90.9749C99.3185 91.6313 98.4283 92 97.5 92H48.5C47.5717 92 46.6815 91.6313 46.0251 90.9749C45.3687 90.3185 45 89.4283 45 88.5V61.48L71.18 77.475C71.7121 77.7822 72.3156 77.9439 72.93 77.9439C73.5444 77.9439 74.1479 77.7822 74.68 77.475L101 61.48V88.5Z" fill="#2094E6"/>
</svg>
